<?xml version="1.0" encoding="UTF-8" standalone="no"?>
<!-- Created with Inkscape (http://www.inkscape.org/) -->

<svg
   xmlns:dc="http://purl.org/dc/elements/1.1/"
   xmlns:cc="http://creativecommons.org/ns#"
   xmlns:rdf="http://www.w3.org/1999/02/22-rdf-syntax-ns#"
   xmlns:svg="http://www.w3.org/2000/svg"
   xmlns="http://www.w3.org/2000/svg"
   xmlns:sodipodi="http://sodipodi.sourceforge.net/DTD/sodipodi-0.dtd"
   xmlns:inkscape="http://www.inkscape.org/namespaces/inkscape"
   width="126"
   height="126"
   id="svg2"
   version="1.1"
   inkscape:version="0.48.3.1 r9886"
   sodipodi:docname="calendar_ico.svg">
  <defs
     id="defs4" />
  <sodipodi:namedview
     id="base"
     pagecolor="#455049"
     bordercolor="#666666"
     borderopacity="1.0"
     inkscape:pageopacity="1"
     inkscape:pageshadow="2"
     inkscape:zoom="7.1190476"
     inkscape:cx="63"
     inkscape:cy="53.780624"
     inkscape:document-units="px"
     inkscape:current-layer="layer1"
     showgrid="true"
     fit-margin-top="0"
     fit-margin-left="0"
     fit-margin-right="0"
     fit-margin-bottom="0"
     inkscape:window-width="1920"
     inkscape:window-height="1044"
     inkscape:window-x="0"
     inkscape:window-y="0"
     inkscape:window-maximized="1"
     inkscape:snap-global="true"
     showguides="false"
     inkscape:guide-bbox="true"
     inkscape:snap-bbox="true"
     inkscape:snap-object-midpoints="false"
     inkscape:snap-grids="true"
     inkscape:snap-to-guides="false"
     inkscape:object-nodes="true"
     inkscape:snap-page="true">
    <inkscape:grid
       type="xygrid"
       id="grid2985"
       empspacing="5"
       visible="true"
       enabled="true"
       snapvisiblegridlinesonly="true"
       originx="-177.82037px"
       originy="-348.01007px" />
  </sodipodi:namedview>
  <metadata
     id="metadata7">
    <rdf:RDF>
      <cc:Work
         rdf:about="">
        <dc:format>image/svg+xml</dc:format>
        <dc:type
           rdf:resource="http://purl.org/dc/dcmitype/StillImage" />
        <dc:title></dc:title>
      </cc:Work>
    </rdf:RDF>
  </metadata>
  <g
     inkscape:label="Layer 1"
     inkscape:groupmode="layer"
     id="layer1"
     transform="translate(-177.82037,-578.35211)">
    <rect
       style="fill:#000000;fill-opacity:1;stroke:none"
       id="rect3886"
       width="0"
       height="3.0434394"
       x="7.7257524"
       y="19.010071"
       transform="translate(177.82037,578.35211)" />
    <path
       style="fill:#ffffff;fill-opacity:1;stroke:none"
       d="m 198.42974,599.67563 c -1.41631,0 -2.5625,1.14619 -2.5625,2.5625 l 0,82.96875 c 0,1.41631 1.14619,2.5625 2.5625,2.5625 l 84.78126,0 c 1.4163,0 2.5625,-1.14619 2.5625,-2.5625 l 0,-82.96875 c 0,-1.41631 -1.1462,-2.5625 -2.5625,-2.5625 l -4.84375,0 0,11.5625 c 2.27421,1.58019 3.75,4.20836 3.75,7.1875 0,4.83249 -3.91751,8.75 -8.75,8.75 -4.8325,0 -8.75,-3.91751 -8.75,-8.75 0,-2.97914 1.47577,-5.60731 3.75,-7.1875 l 0,-11.5625 -55.00001,0 0,11.5625 c 2.27423,1.58019 3.75,4.20836 3.75,7.1875 0,4.83249 -3.9175,8.75 -8.75,8.75 -4.83249,0 -8.75,-3.91751 -8.75,-8.75 0,-2.97914 1.47578,-5.60731 3.75,-7.1875 l 0,-11.5625 -4.9375,0 z"
       id="rect3964"
       inkscape:connector-curvature="0" />
    <rect
       style="fill:#ffffff;fill-opacity:1;stroke:none"
       id="rect3966"
       width="5"
       height="27.250835"
       x="205.85938"
       y="594.93481"
       ry="2.5565219" />
    <rect
       style="fill:#ffffff;fill-opacity:1;stroke:none"
       id="rect3966-1"
       width="5"
       height="27.250835"
       x="270.85938"
       y="594.93481"
       ry="2.5565219" />
  </g>
</svg>
