<?xml version="1.0" encoding="UTF-8" standalone="no"?>
<!-- Created with Inkscape (http://www.inkscape.org/) -->

<svg
   xmlns:dc="http://purl.org/dc/elements/1.1/"
   xmlns:cc="http://creativecommons.org/ns#"
   xmlns:rdf="http://www.w3.org/1999/02/22-rdf-syntax-ns#"
   xmlns:svg="http://www.w3.org/2000/svg"
   xmlns="http://www.w3.org/2000/svg"
   xmlns:sodipodi="http://sodipodi.sourceforge.net/DTD/sodipodi-0.dtd"
   xmlns:inkscape="http://www.inkscape.org/namespaces/inkscape"
   width="126"
   height="126"
   id="svg2"
   version="1.1"
   inkscape:version="0.48.4 r9939"
   sodipodi:docname="calendar_ico.svg">
  <defs
     id="defs4" />
  <sodipodi:namedview
     id="base"
     pagecolor="#455049"
     bordercolor="#666666"
     borderopacity="1.0"
     inkscape:pageopacity="1"
     inkscape:pageshadow="2"
     inkscape:zoom="7.1190476"
     inkscape:cx="45.511706"
     inkscape:cy="53.780624"
     inkscape:document-units="px"
     inkscape:current-layer="layer1"
     showgrid="true"
     fit-margin-top="0"
     fit-margin-left="0"
     fit-margin-right="0"
     fit-margin-bottom="0"
     inkscape:window-width="1920"
     inkscape:window-height="1025"
     inkscape:window-x="-3"
     inkscape:window-y="-3"
     inkscape:window-maximized="1"
     inkscape:snap-global="true"
     showguides="false"
     inkscape:guide-bbox="true"
     inkscape:snap-bbox="true"
     inkscape:snap-object-midpoints="false"
     inkscape:snap-grids="true"
     inkscape:snap-to-guides="false"
     inkscape:object-nodes="true"
     inkscape:snap-page="true">
    <inkscape:grid
       type="xygrid"
       id="grid2985"
       empspacing="5"
       visible="true"
       enabled="true"
       snapvisiblegridlinesonly="true"
       originx="-177.82037px"
       originy="-348.01007px" />
  </sodipodi:namedview>
  <metadata
     id="metadata7">
    <rdf:RDF>
      <cc:Work
         rdf:about="">
        <dc:format>image/svg+xml</dc:format>
        <dc:type
           rdf:resource="http://purl.org/dc/dcmitype/StillImage" />
        <dc:title></dc:title>
      </cc:Work>
    </rdf:RDF>
  </metadata>
  <g
     inkscape:label="Layer 1"
     inkscape:groupmode="layer"
     id="layer1"
     transform="translate(-177.82037,-578.35211)">
    <rect
       style="fill:#000000;fill-opacity:1;stroke:none"
       id="rect3886"
       width="0"
       height="3.0434394"
       x="7.7257524"
       y="19.010071"
       transform="translate(177.82037,578.35211)" />
    <path
       style="fill:#ffffff;fill-opacity:1;stroke:none"
       d="M 20.59375 21.3125 C 19.17744 21.3125 18.03125 22.45869 18.03125 23.875 L 18.03125 106.84375 C 18.03125 108.26006 19.17744 109.40625 20.59375 109.40625 L 105.40625 109.40625 C 106.82255 109.40625 107.96875 108.26006 107.96875 106.84375 L 107.96875 23.875 C 107.96875 22.45869 106.82255 21.3125 105.40625 21.3125 L 100.5625 21.3125 L 100.5625 32.875 C 102.83671 34.45519 104.3125 37.08336 104.3125 40.0625 C 104.3125 44.89499 100.39499 48.8125 95.5625 48.8125 C 90.73 48.8125 86.8125 44.89499 86.8125 40.0625 C 86.8125 37.08336 88.28827 34.45519 90.5625 32.875 L 90.5625 21.3125 L 35.53125 21.3125 L 35.53125 32.875 C 37.80548 34.45519 39.28125 37.08336 39.28125 40.0625 C 39.28125 44.89499 35.36375 48.8125 30.53125 48.8125 C 25.69876 48.8125 21.78125 44.89499 21.78125 40.0625 C 21.78125 37.08336 23.25703 34.45519 25.53125 32.875 L 25.53125 21.3125 L 20.59375 21.3125 z M 39.90625 49 L 57.96875 49 L 62.34375 68.4375 L 63.65625 68.4375 L 68.125 49 L 86.09375 49 L 86.09375 55.21875 L 72 85.375 L 72 99 L 54 99 L 54 85.375 L 39.90625 55.21875 L 39.90625 49 z "
       transform="translate(177.82037,578.35211)"
       id="rect3964" />
    <rect
       style="fill:#ffffff;fill-opacity:1;stroke:none"
       id="rect3966"
       width="5"
       height="27.250835"
       x="205.85938"
       y="594.93481"
       ry="2.5565219" />
    <rect
       style="fill:#ffffff;fill-opacity:1;stroke:none"
       id="rect3966-1"
       width="5"
       height="27.250835"
       x="270.85938"
       y="594.93481"
       ry="2.5565219" />
  </g>
</svg>
