<?xml version="1.0" encoding="UTF-8" standalone="no"?>
<!-- Created with Inkscape (http://www.inkscape.org/) -->

<svg
   xmlns:dc="http://purl.org/dc/elements/1.1/"
   xmlns:cc="http://creativecommons.org/ns#"
   xmlns:rdf="http://www.w3.org/1999/02/22-rdf-syntax-ns#"
   xmlns:svg="http://www.w3.org/2000/svg"
   xmlns="http://www.w3.org/2000/svg"
   xmlns:sodipodi="http://sodipodi.sourceforge.net/DTD/sodipodi-0.dtd"
   xmlns:inkscape="http://www.inkscape.org/namespaces/inkscape"
   width="126"
   height="126"
   id="svg3778"
   version="1.1"
   inkscape:version="0.48.3.1 r9886"
   sodipodi:docname="comment_ico.svg">
  <defs
     id="defs3780" />
  <sodipodi:namedview
     id="base"
     pagecolor="#065318"
     bordercolor="#666666"
     borderopacity="1.0"
     inkscape:pageopacity="1"
     inkscape:pageshadow="2"
     inkscape:zoom="7.1190476"
     inkscape:cx="46.424749"
     inkscape:cy="68.618729"
     inkscape:current-layer="layer1"
     showgrid="true"
     inkscape:grid-bbox="true"
     inkscape:document-units="px"
     showguides="true"
     inkscape:guide-bbox="true"
     inkscape:window-width="1920"
     inkscape:window-height="1044"
     inkscape:window-x="0"
     inkscape:window-y="0"
     inkscape:window-maximized="1"
     fit-margin-top="0"
     fit-margin-left="0"
     fit-margin-right="0"
     fit-margin-bottom="0"
     inkscape:snap-global="true"
     inkscape:snap-page="false"
     inkscape:snap-grids="false"
     inkscape:snap-bbox="true"
     inkscape:object-paths="true">
    <inkscape:grid
       type="xygrid"
       id="grid3786"
       empspacing="5"
       visible="true"
       enabled="true"
       snapvisiblegridlinesonly="true"
       originx="5.246048px"
       originy="70.013946px" />
  </sodipodi:namedview>
  <metadata
     id="metadata3783">
    <rdf:RDF>
      <cc:Work
         rdf:about="">
        <dc:format>image/svg+xml</dc:format>
        <dc:type
           rdf:resource="http://purl.org/dc/dcmitype/StillImage" />
        <dc:title />
      </cc:Work>
    </rdf:RDF>
  </metadata>
  <g
     id="layer1"
     inkscape:label="Layer 1"
     inkscape:groupmode="layer"
     transform="translate(5.246048,23.986055)">
    <path
       style="fill:#ffffff;fill-opacity:1;stroke:none"
       d="m 5.9532021,1.1338239 c -6.0846845,0 -10.9954429,4.9725145 -10.9954429,11.1852391 l 0,38.129605 c 0,6.212725 4.9107584,11.22682 10.9954429,11.22682 l 73.9952589,0 8.470562,15.218578 10.303139,-15.218578 10.832538,0 c 6.08468,0 10.99544,-5.014095 10.99544,-11.22682 l 0,-38.129605 c 0,-6.2127246 -4.91076,-11.1852391 -10.99544,-11.1852391 l -103.6014979,0 z M 32.016475,24.377498 c 3.993347,0 7.248847,3.156228 7.248847,7.027159 0,3.870928 -3.2555,6.985576 -7.248847,6.985576 -3.993348,0 -7.208124,-3.114648 -7.208124,-6.985576 0,-3.870931 3.214776,-7.027159 7.208124,-7.027159 z m 25.73748,0 c 3.993349,0 7.248848,3.156228 7.248848,7.027159 0,3.870928 -3.255499,6.985576 -7.248848,6.985576 -3.993348,0 -7.248847,-3.114648 -7.248847,-6.985576 0,-3.870931 3.255499,-7.027159 7.248847,-7.027159 z m 25.737482,0 c 3.993347,0 7.208123,3.156228 7.208123,7.027159 0,3.870928 -3.214776,6.985576 -7.208123,6.985576 -3.993348,0 -7.248848,-3.114648 -7.248848,-6.985576 0,-3.870931 3.2555,-7.027159 7.248848,-7.027159 z"
       id="rect3878"
       inkscape:connector-curvature="0" />
  </g>
</svg>
