<?xml version="1.0" encoding="UTF-8" standalone="no"?>
<!-- Created with Inkscape (http://www.inkscape.org/) -->

<svg
   xmlns:dc="http://purl.org/dc/elements/1.1/"
   xmlns:cc="http://creativecommons.org/ns#"
   xmlns:rdf="http://www.w3.org/1999/02/22-rdf-syntax-ns#"
   xmlns:svg="http://www.w3.org/2000/svg"
   xmlns="http://www.w3.org/2000/svg"
   xmlns:sodipodi="http://sodipodi.sourceforge.net/DTD/sodipodi-0.dtd"
   xmlns:inkscape="http://www.inkscape.org/namespaces/inkscape"
   width="126"
   height="126"
   id="svg3778"
   version="1.1"
   inkscape:version="0.48.3.1 r9886"
   sodipodi:docname="dollar_ico.svg">
  <defs
     id="defs3780" />
  <sodipodi:namedview
     id="base"
     pagecolor="#065318"
     bordercolor="#666666"
     borderopacity="1.0"
     inkscape:pageopacity="1"
     inkscape:pageshadow="2"
     inkscape:zoom="4.9441355"
     inkscape:cx="37.834663"
     inkscape:cy="43.712816"
     inkscape:current-layer="layer1"
     showgrid="true"
     inkscape:grid-bbox="true"
     inkscape:document-units="px"
     showguides="true"
     inkscape:guide-bbox="true"
     inkscape:window-width="1920"
     inkscape:window-height="1044"
     inkscape:window-x="0"
     inkscape:window-y="0"
     inkscape:window-maximized="1"
     fit-margin-top="0"
     fit-margin-left="0"
     fit-margin-right="0"
     fit-margin-bottom="0">
    <inkscape:grid
       type="xygrid"
       id="grid3786"
       empspacing="5"
       visible="true"
       enabled="true"
       snapvisiblegridlinesonly="true"
       originx="5.246048px"
       originy="70.013946px" />
  </sodipodi:namedview>
  <metadata
     id="metadata3783">
    <rdf:RDF>
      <cc:Work
         rdf:about="">
        <dc:format>image/svg+xml</dc:format>
        <dc:type
           rdf:resource="http://purl.org/dc/dcmitype/StillImage" />
        <dc:title></dc:title>
      </cc:Work>
    </rdf:RDF>
  </metadata>
  <g
     id="layer1"
     inkscape:label="Layer 1"
     inkscape:groupmode="layer"
     transform="translate(5.246048,23.986055)">
    <path
       style="fill:#ffffff;fill-opacity:1;stroke:none"
       d="m 1.1017783,31.053833 -3.85,0.825 c 3.7026825,14.070194 19.2499997,13.75 32.9999997,44 16.5,5.5 88.000002,-35.75 88.000002,-35.75 0,0 -3.28419,-1.509085 -7.66562,-3.9875 -4.88906,2.700847 -11.915383,6.494469 -19.800007,10.51875 0.183711,1.614423 0.03902,3.211909 -0.55,4.709375 -2.572515,6.540142 -12.061049,9.018755 -21.8625,6.05 C 52.300987,64.546775 36.892879,69.842534 30.251778,67.628833 19.42284,43.805169 7.4964237,38.917693 1.1017783,31.053833 z"
       id="rect3863"
       inkscape:connector-curvature="0" />
    <path
       style="fill:#ffffff;fill-opacity:1;stroke:none"
       d="M 88.006125,1.6441739 -2.7438745,20.894174 c 3.7026825,14.070194 19.2499995,13.75 32.9999995,44 6.206705,2.068902 20.195955,-2.494562 35.234375,-8.971875 -5.119011,-2.231036 -9.13264,-5.62067 -11.48125,-9.315625 -0.0032,-0.005 -0.03123,0.005 -0.03438,0 -8.276871,-4.633399 -12.813491,-12.37898 -10.38125,-18.5625 2.779705,-7.06688 13.634056,-9.42893 24.234376,-5.259375 2.899883,1.140647 5.468536,2.662977 7.631249,4.4 1.124356,0.297986 2.239657,0.655879 3.368751,1.1 7.742873,3.045601 13.168921,8.738854 14.471874,14.334375 14.122195,-7.26875 24.956255,-13.475 24.956255,-13.475 0,0 -30.250009,-13.75 -30.250005,-27.5000001 z"
       id="path3868"
       inkscape:connector-curvature="0" />
    <path
       style="fill:#ffffff;fill-opacity:1;stroke:none"
       d="m 81.612375,31.172299 c 3.627535,4.128784 5.163589,8.936414 3.540626,13.0625 -2.779712,7.066881 -13.634056,9.394557 -24.234376,5.225 -2.03018,-0.798556 -3.919627,-1.775634 -5.603125,-2.8875 2.587062,2.957345 6.261745,5.579808 10.690625,7.321875 10.60032,4.169557 21.454664,1.807506 24.234375,-5.259375 2.250078,-5.720411 -1.504471,-12.768935 -8.628125,-17.4625 z"
       id="path3886"
       inkscape:connector-curvature="0" />
    <path
       style="fill:#ffffff;fill-opacity:1;stroke:none"
       d="M 84.728464,43.132768 C 81.948753,50.199652 71.102098,52.548394 60.501778,48.378833 49.901458,44.209279 43.561596,35.100348 46.3413,28.033468 c 2.779704,-7.06688 13.626358,-9.415625 24.226677,-5.24607 10.600326,4.169557 16.940187,13.278491 14.160487,20.34537 z"
       id="path3892"
       inkscape:connector-curvature="0"
       sodipodi:nodetypes="sssss" />
  </g>
</svg>
