<?xml version="1.0" encoding="UTF-8" standalone="no"?>
<!-- Created with Inkscape (http://www.inkscape.org/) -->

<svg
   xmlns:dc="http://purl.org/dc/elements/1.1/"
   xmlns:cc="http://creativecommons.org/ns#"
   xmlns:rdf="http://www.w3.org/1999/02/22-rdf-syntax-ns#"
   xmlns:svg="http://www.w3.org/2000/svg"
   xmlns="http://www.w3.org/2000/svg"
   xmlns:sodipodi="http://sodipodi.sourceforge.net/DTD/sodipodi-0.dtd"
   xmlns:inkscape="http://www.inkscape.org/namespaces/inkscape"
   width="126"
   height="126"
   id="svg3778"
   version="1.1"
   inkscape:version="0.48.4 r9939"
   sodipodi:docname="pause_ico.svg">
  <defs
     id="defs3780" />
  <sodipodi:namedview
     id="base"
     pagecolor="#065318"
     bordercolor="#666666"
     borderopacity="1.0"
     inkscape:pageopacity="1"
     inkscape:pageshadow="2"
     inkscape:zoom="7.1190476"
     inkscape:cx="43.896321"
     inkscape:cy="51.762542"
     inkscape:current-layer="layer1"
     showgrid="true"
     inkscape:grid-bbox="true"
     inkscape:document-units="px"
     showguides="true"
     inkscape:guide-bbox="true"
     inkscape:window-width="1920"
     inkscape:window-height="1025"
     inkscape:window-x="-2"
     inkscape:window-y="-3"
     inkscape:window-maximized="1"
     fit-margin-top="0"
     fit-margin-left="0"
     fit-margin-right="0"
     fit-margin-bottom="0"
     inkscape:snap-grids="false"
     inkscape:snap-to-guides="false">
    <inkscape:grid
       type="xygrid"
       id="grid3786"
       empspacing="5"
       visible="true"
       enabled="true"
       snapvisiblegridlinesonly="true"
       originx="5.246048px"
       originy="70.013946px" />
  </sodipodi:namedview>
  <metadata
     id="metadata3783">
    <rdf:RDF>
      <cc:Work
         rdf:about="">
        <dc:format>image/svg+xml</dc:format>
        <dc:type
           rdf:resource="http://purl.org/dc/dcmitype/StillImage" />
        <dc:title></dc:title>
      </cc:Work>
    </rdf:RDF>
  </metadata>
  <g
     id="layer1"
     inkscape:label="Layer 1"
     inkscape:groupmode="layer"
     transform="translate(5.246048,23.986055)">
    <path
       style="fill:#ffffff;fill-opacity:1"
       d="m 57.029974,-15.986055 c 5,8.016145 -10,45 -20,60 -5,-5 5.016923,-30.852513 0.46875,-20.53125 -2.730063,6.19539 -13.664796,16.887357 -15.46875,25.53125 -1.390468,6.662621 -1.910298,13.658705 0,20 4.503361,14.94905 17.90861,25 40,25 10.025803,-0.0082 42.112276,-10.73794 30,-50 -6.25,-20.11727 -25,-45 -35,-60 z m 2.375,52.9375 c 5.269515,7.146549 15.144053,19.009146 18.4375,28.59375 6.382584,18.70588 -10.529388,23.80861 -15.8125,23.8125 -11.641091,0 -18.689448,-4.78397 -21.0625,-11.90625 -1.006634,-3.021225 -0.732709,-6.356933 0,-9.53125 0.950596,-4.118267 6.717638,-9.204539 8.15625,-12.15625 0.374479,-0.768348 0.566023,-1.094023 0.625,-1.125 0.05282,0.476557 -3.015741,8.970726 -0.875,10.90625 5.269515,-7.14655 13.166007,-24.774565 10.53125,-28.59375 z"
       id="path4093"
       inkscape:connector-curvature="0" />
  </g>
</svg>
