<?xml version="1.0" encoding="UTF-8" standalone="no"?>
<!-- Created with Inkscape (http://www.inkscape.org/) -->

<svg
   xmlns:dc="http://purl.org/dc/elements/1.1/"
   xmlns:cc="http://creativecommons.org/ns#"
   xmlns:rdf="http://www.w3.org/1999/02/22-rdf-syntax-ns#"
   xmlns:svg="http://www.w3.org/2000/svg"
   xmlns="http://www.w3.org/2000/svg"
   xmlns:sodipodi="http://sodipodi.sourceforge.net/DTD/sodipodi-0.dtd"
   xmlns:inkscape="http://www.inkscape.org/namespaces/inkscape"
   width="126"
   height="126"
   id="svg3778"
   version="1.1"
   inkscape:version="0.48.3.1 r9886"
   sodipodi:docname="logout_ico.svg">
  <defs
     id="defs3780" />
  <sodipodi:namedview
     id="base"
     pagecolor="#065318"
     bordercolor="#666666"
     borderopacity="1.0"
     inkscape:pageopacity="1"
     inkscape:pageshadow="2"
     inkscape:zoom="7.1190476"
     inkscape:cx="63"
     inkscape:cy="63"
     inkscape:current-layer="layer1"
     showgrid="true"
     inkscape:grid-bbox="true"
     inkscape:document-units="px"
     showguides="true"
     inkscape:guide-bbox="true"
     inkscape:window-width="1920"
     inkscape:window-height="1044"
     inkscape:window-x="0"
     inkscape:window-y="0"
     inkscape:window-maximized="1"
     fit-margin-top="0"
     fit-margin-left="0"
     fit-margin-right="0"
     fit-margin-bottom="0">
    <inkscape:grid
       type="xygrid"
       id="grid3786"
       empspacing="5"
       visible="true"
       enabled="true"
       snapvisiblegridlinesonly="true"
       originx="5.246048px"
       originy="70.013946px" />
  </sodipodi:namedview>
  <metadata
     id="metadata3783">
    <rdf:RDF>
      <cc:Work
         rdf:about="">
        <dc:format>image/svg+xml</dc:format>
        <dc:type
           rdf:resource="http://purl.org/dc/dcmitype/StillImage" />
        <dc:title></dc:title>
      </cc:Work>
    </rdf:RDF>
  </metadata>
  <g
     id="layer1"
     inkscape:label="Layer 1"
     inkscape:groupmode="layer"
     transform="translate(5.246048,23.986055)">
    <path
       style="fill:#24a0dc;fill-opacity:1;stroke:none"
       d="m 56.753952,-18.486056 c -31.756374,0 -57.5,25.7436272 -57.5,57.5 0,31.756373 25.743627,57.50744 57.5,57.5 L 87.5,96.499999 86,101 l 25,-8.500001 -25,-13.5 1.25,5.999995 -30.496048,0.01395 c -25.405097,0.0101 -46,-20.594902 -46,-46 0,-25.405098 20.594901,-45.9999998 46,-45.9999998 25.405099,0 45.999998,20.5949018 45.999998,45.9999998 0,10.800199 -5.521708,24.641183 -11.75395,32.486055 l 9.75395,6.013945 c 8.68776,-10.071478 13.5,-24.156265 13.5,-38.5 0,-31.7563728 -25.743624,-57.5 -57.499998,-57.5 z"
       id="path3848"
       inkscape:connector-curvature="0"
       sodipodi:nodetypes="sscccccccsssccss" />
    <rect
       style="fill:#ffff00;fill-opacity:1;stroke:none"
       id="rect3933"
       width="30.000008"
       height="29.999992"
       x="42.753948"
       y="24.013948"
       ry="14.999996"
       rx="14.929044" />
  </g>
</svg>
