<?xml version="1.0" encoding="UTF-8" standalone="no"?>
<!-- Created with Inkscape (http://www.inkscape.org/) -->

<svg
   xmlns:dc="http://purl.org/dc/elements/1.1/"
   xmlns:cc="http://creativecommons.org/ns#"
   xmlns:rdf="http://www.w3.org/1999/02/22-rdf-syntax-ns#"
   xmlns:svg="http://www.w3.org/2000/svg"
   xmlns="http://www.w3.org/2000/svg"
   xmlns:sodipodi="http://sodipodi.sourceforge.net/DTD/sodipodi-0.dtd"
   xmlns:inkscape="http://www.inkscape.org/namespaces/inkscape"
   width="126"
   height="126"
   id="svg3778"
   version="1.1"
   inkscape:version="0.48.4 r9939"
   sodipodi:docname="inventory_ico.svg">
  <defs
     id="defs3780" />
  <sodipodi:namedview
     id="base"
     pagecolor="#065318"
     bordercolor="#666666"
     borderopacity="1.0"
     inkscape:pageopacity="1"
     inkscape:pageshadow="2"
     inkscape:zoom="6.7142857"
     inkscape:cx="63"
     inkscape:cy="63"
     inkscape:current-layer="layer1"
     showgrid="true"
     inkscape:grid-bbox="true"
     inkscape:document-units="px"
     showguides="true"
     inkscape:guide-bbox="true"
     inkscape:window-width="1920"
     inkscape:window-height="1025"
     inkscape:window-x="-2"
     inkscape:window-y="-3"
     inkscape:window-maximized="1"
     fit-margin-top="0"
     fit-margin-left="0"
     fit-margin-right="0"
     fit-margin-bottom="0"
     inkscape:snap-grids="true">
    <inkscape:grid
       type="xygrid"
       id="grid3786"
       empspacing="5"
       visible="true"
       enabled="true"
       snapvisiblegridlinesonly="true"
       originx="5.246048px"
       originy="70.013946px" />
  </sodipodi:namedview>
  <metadata
     id="metadata3783">
    <rdf:RDF>
      <cc:Work
         rdf:about="">
        <dc:format>image/svg+xml</dc:format>
        <dc:type
           rdf:resource="http://purl.org/dc/dcmitype/StillImage" />
        <dc:title></dc:title>
      </cc:Work>
    </rdf:RDF>
  </metadata>
  <g
     id="layer1"
     inkscape:label="Layer 1"
     inkscape:groupmode="layer"
     transform="translate(5.246048,23.986055)">
    <path
       style="fill:#ffffff;fill-opacity:1;stroke:none"
       d="M 20.84375 21 C 20.50402 21 20.25 21.25402 20.25 21.59375 L 20.25 105.375 C 20.25 105.71473 20.50402 106 20.84375 106 L 104.625 106 C 104.96473 106 105.25 105.71473 105.25 105.375 L 105.25 21.59375 C 105.25 21.25402 104.96473 21 104.625 21 L 20.84375 21 z M 25.84375 26 L 99.625 26 C 99.96473 26 100.25 26.25402 100.25 26.59375 L 100.25 45.375 C 100.25 45.71473 99.96473 46 99.625 46 L 25.84375 46 C 25.50402 46 25.25 45.71473 25.25 45.375 L 25.25 26.59375 C 25.25 26.25402 25.50402 26 25.84375 26 z M 30.84375 56 L 94.625 56 C 94.96473 56 95.25 56.25402 95.25 56.59375 L 95.25 65.375 C 95.25 65.71473 94.96473 66 94.625 66 L 30.84375 66 C 30.50402 66 30.25 65.71473 30.25 65.375 L 30.25 56.59375 C 30.25 56.25402 30.50402 56 30.84375 56 z M 31.15625 71.03125 L 94.9375 71.03125 C 95.27723 71.03125 95.53125 71.31652 95.53125 71.65625 L 95.53125 80.40625 C 95.53125 80.74598 95.27723 81.03125 94.9375 81.03125 L 31.15625 81.03125 C 30.81652 81.03125 30.53125 80.74598 30.53125 80.40625 L 30.53125 71.65625 C 30.53125 71.31652 30.81652 71.03125 31.15625 71.03125 z M 31 86.0625 L 94.625 86.0625 C 94.96473 86.0625 95.25 86.34777 95.25 86.6875 L 95.25 95.46875 C 95.25 95.80848 94.96473 96.0625 94.625 96.0625 L 31 96.0625 C 30.66027 96.0625 30.40625 95.80848 30.40625 95.46875 L 30.40625 86.6875 C 30.40625 86.34777 30.66027 86.0625 31 86.0625 z "
       transform="translate(-5.246048,-23.986055)"
       id="rect3174" />
  </g>
</svg>
