<?xml version="1.0" encoding="UTF-8" standalone="no"?>
<!-- Created with Inkscape (http://www.inkscape.org/) -->

<svg
   xmlns:dc="http://purl.org/dc/elements/1.1/"
   xmlns:cc="http://creativecommons.org/ns#"
   xmlns:rdf="http://www.w3.org/1999/02/22-rdf-syntax-ns#"
   xmlns:svg="http://www.w3.org/2000/svg"
   xmlns="http://www.w3.org/2000/svg"
   xmlns:sodipodi="http://sodipodi.sourceforge.net/DTD/sodipodi-0.dtd"
   xmlns:inkscape="http://www.inkscape.org/namespaces/inkscape"
   width="126"
   height="126"
   id="svg3778"
   version="1.1"
   inkscape:version="0.48.3.1 r9886"
   sodipodi:docname="check_ico.svg">
  <defs
     id="defs3780" />
  <sodipodi:namedview
     id="base"
     pagecolor="#065318"
     bordercolor="#666666"
     borderopacity="1.0"
     inkscape:pageopacity="1"
     inkscape:pageshadow="2"
     inkscape:zoom="7.1190476"
     inkscape:cx="63"
     inkscape:cy="63"
     inkscape:current-layer="layer1"
     showgrid="true"
     inkscape:grid-bbox="true"
     inkscape:document-units="px"
     showguides="true"
     inkscape:guide-bbox="true"
     inkscape:window-width="1920"
     inkscape:window-height="1044"
     inkscape:window-x="0"
     inkscape:window-y="0"
     inkscape:window-maximized="1"
     fit-margin-top="0"
     fit-margin-left="0"
     fit-margin-right="0"
     fit-margin-bottom="0">
    <inkscape:grid
       type="xygrid"
       id="grid3786"
       empspacing="5"
       visible="true"
       enabled="true"
       snapvisiblegridlinesonly="true"
       originx="5.246048px"
       originy="70.013946px" />
  </sodipodi:namedview>
  <metadata
     id="metadata3783">
    <rdf:RDF>
      <cc:Work
         rdf:about="">
        <dc:format>image/svg+xml</dc:format>
        <dc:type
           rdf:resource="http://purl.org/dc/dcmitype/StillImage" />
        <dc:title></dc:title>
      </cc:Work>
    </rdf:RDF>
  </metadata>
  <g
     id="layer1"
     inkscape:label="Layer 1"
     inkscape:groupmode="layer"
     transform="translate(5.246048,23.986055)">
    <path
       sodipodi:type="arc"
       style="fill:#000000;fill-opacity:1;stroke:none"
       id="path3792"
       sodipodi:cx="56.496048"
       sodipodi:cy="65.986053"
       sodipodi:rx="48.75"
       sodipodi:ry="50"
       d="m 105.24605,65.986053 a 48.75,50 0 1 1 -97.500002,0 48.75,50 0 1 1 97.500002,0 z"
       transform="matrix(1.1282051,0,0,1.125,-6.239131,-35.984311)" />
    <path
       style="fill:#fed61d;fill-opacity:1;stroke:none"
       d="M 63 0.5 C 28.482203 0.5 0.5 28.482203 0.5 63 C 0.5 97.517797 28.482203 125.5 63 125.5 C 97.517797 125.5 125.5 97.517797 125.5 63 C 125.5 28.482203 97.517797 0.5 63 0.5 z M 63 9.875 C 92.340127 9.875 116.125 33.659873 116.125 63 C 116.125 92.340127 92.340127 116.125 63 116.125 C 33.659873 116.125 9.875 92.340127 9.875 63 C 9.875 33.659873 33.659873 9.875 63 9.875 z "
       transform="translate(-5.246048,-23.986055)"
       id="path2992" />
    <path
       style="fill:#fed61d;fill-opacity:1;stroke:none"
       d="M 45.5 39.25 L 45.5 86.75 L 57.75 86.75 L 57.75 39.25 L 45.5 39.25 z M 67.75 39.25 L 67.75 86.75 L 80.5 86.75 L 80.5 39.25 L 67.75 39.25 z "
       transform="translate(-5.246048,-23.986055)"
       id="rect3787" />
  </g>
</svg>
