<?xml version="1.0" encoding="UTF-8" standalone="no"?>
<!-- Created with Inkscape (http://www.inkscape.org/) -->

<svg
   xmlns:dc="http://purl.org/dc/elements/1.1/"
   xmlns:cc="http://creativecommons.org/ns#"
   xmlns:rdf="http://www.w3.org/1999/02/22-rdf-syntax-ns#"
   xmlns:svg="http://www.w3.org/2000/svg"
   xmlns="http://www.w3.org/2000/svg"
   xmlns:sodipodi="http://sodipodi.sourceforge.net/DTD/sodipodi-0.dtd"
   xmlns:inkscape="http://www.inkscape.org/namespaces/inkscape"
   width="126"
   height="126"
   id="svg3778"
   version="1.1"
   inkscape:version="0.48.4 r9939"
   sodipodi:docname="check_white_ico.svg"
   inkscape:export-filename="/home/art/Desktop/refresh.png"
   inkscape:export-xdpi="90"
   inkscape:export-ydpi="90">
  <defs
     id="defs3780">
    <filter
       id="filter3199"
       inkscape:menu-tooltip="Draws a black outline around"
       inkscape:menu="ABCs"
       inkscape:label="Black outline"
       color-interpolation-filters="sRGB">
      <feGaussianBlur
         id="feGaussianBlur3201"
         stdDeviation="2"
         in="SourceAlpha"
         result="result0" />
      <feComposite
         id="feComposite3203"
         in2="result0"
         result="result3"
         operator="arithmetic"
         in="SourceGraphic"
         k2="1"
         k3="10" />
      <feComposite
         id="feComposite3205"
         in2="result3"
         k2="1"
         operator="in"
         in="result3"
         result="result4" />
    </filter>
  </defs>
  <sodipodi:namedview
     id="base"
     pagecolor="#065318"
     bordercolor="#666666"
     borderopacity="1.0"
     inkscape:pageopacity="1"
     inkscape:pageshadow="2"
     inkscape:zoom="5.4354991"
     inkscape:cx="64.637773"
     inkscape:cy="58.726133"
     inkscape:current-layer="layer1"
     showgrid="true"
     inkscape:grid-bbox="true"
     inkscape:document-units="px"
     showguides="true"
     inkscape:guide-bbox="true"
     inkscape:window-width="1920"
     inkscape:window-height="1060"
     inkscape:window-x="-2"
     inkscape:window-y="-3"
     inkscape:window-maximized="1"
     fit-margin-top="0"
     fit-margin-left="0"
     fit-margin-right="0"
     fit-margin-bottom="0"
     inkscape:snap-page="true"
     inkscape:snap-center="true"
     inkscape:snap-nodes="false"
     inkscape:snap-bbox="true">
    <inkscape:grid
       type="xygrid"
       id="grid3786"
       empspacing="5"
       visible="true"
       enabled="true"
       snapvisiblegridlinesonly="true"
       originx="5.246048px"
       originy="70.013946px" />
  </sodipodi:namedview>
  <metadata
     id="metadata3783">
    <rdf:RDF>
      <cc:Work
         rdf:about="">
        <dc:format>image/svg+xml</dc:format>
        <dc:type
           rdf:resource="http://purl.org/dc/dcmitype/StillImage" />
        <dc:title></dc:title>
      </cc:Work>
    </rdf:RDF>
  </metadata>
  <g
     id="layer1"
     inkscape:label="Layer 1"
     inkscape:groupmode="layer"
     transform="translate(5.246048,23.986055)">
    <g
       id="g3207"
       transform="matrix(0.42644788,0,0,0.45025649,61.165535,22.379446)"
       style="fill:#ffffff;fill-opacity:1">
      <path
         style="fill:#ffffff;fill-opacity:1"
         d="M -26,141.87609 C -37.97509,140.6024 -47.91314,137.6898 -59.53058,132.04908 -80.87053,121.6877 -96.6303,105.91753 -107.04828,84.5 c -7.58907,-15.60179 -9.39691,-23.84819 -9.42677,-43 -0.0137,-8.8 0.20005,-18.19314 0.47505,-20.87364 l 0.5,-4.87364 -12.5,-5.46586 c -6.875,-3.00622 -13.08525,-5.94956 -13.80056,-6.54076 -0.7153,-0.5912 -1.1653,-2.23843 -1,-3.6605 0.26915,-2.3154 3.74815,-4.34371 33.29136,-19.40933 18.17014,-9.2659 34.26093,-16.85984 35.81811,-16.90412 1.55644,-0.0443 3.65647,0.77551 4.67195,1.82373 1.18703,1.2253 5.28715,14.62655 11.50095,37.59085 C -47.3396,40.80372 -47.04276,43 -52.13713,43 -53.27385,43 -59.79661,40.525 -66.63215,37.5 -73.46769,34.475 -79.27182,32 -79.5302,32 c -0.921,0 -0.45065,16.99517 0.61442,22.20078 0.59632,2.91457 3.12773,9.57422 5.62536,14.79922 3.81652,7.9841 5.83757,10.77803 12.66578,17.50928 13.20073,13.01331 27.33002,18.83169 45.62464,18.78805 10.80376,-0.0258 19.29548,-1.90442 28.53044,-6.31186 C 16.97096,97.34346 20.4949,96 21.36142,96 c 1.5886,0 4.43594,3.55119 15.13108,18.8714 6.77693,9.70759 6.75059,9.89676 -2.06321,14.81768 C 16.44466,139.73025 -5.17722,144.09082 -26,141.87609 z M 52.46751,107.59076 C 51.59928,106.26567 46.62345,89.50317 41.4101,70.34076 31.41557,33.60438 31.06275,31 36.08051,31 c 1.16786,0 7.7161,2.475 14.55164,5.5 C 57.46769,39.525 63.27182,42 63.5302,42 63.78859,42 64,38.04454 64,33.2101 64,14.89789 56.93506,-1.28328 43.41948,-13.92644 35.50377,-21.3312 28.87258,-25.26349 19,-28.40719 c -15.80458,-5.0326 -31.13844,-4.09165 -47.44303,2.91131 -4.72971,2.03145 -9.21216,3.45844 -9.96101,3.17108 -0.74884,-0.28736 -5.53587,-6.46804 -10.63784,-13.73485 -7.22263,-10.2873 -9.06136,-13.56969 -8.3054,-14.82636 1.56882,-2.60793 18.3243,-10.8263 27.48447,-13.48081 24.63341,-7.13849 49.35108,-5.12752 72.71433,5.91586 21.5147,10.1696 37.60657,26.1794 48.19676,47.95096 7.58907,15.60179 9.39691,23.84819 9.42677,43 0.0137,8.8 -0.20005,18.15478 -0.47505,20.78839 l -0.5,4.78839 12.5,5.55537 c 6.875,3.05546 13.08525,6.03716 13.80056,6.62602 0.7153,0.58885 1.1653,2.2296 1,3.6461 -0.26881,2.30337 -3.78533,4.34614 -33.28537,19.3356 C 58.4094,111.07771 55.43387,112.118 52.46751,107.59076 z"
         id="path3221"
         inkscape:connector-curvature="0" />
      <path
         style="fill:#ffffff;fill-opacity:1"
         d="M -31,140.52071 C -53.24982,136.74049 -72.2878,126.74747 -87.56828,110.82809 -97.3133,100.6756 -100.74536,95.78023 -106.53525,83.7742 -115.18012,65.84804 -118.4849,45.08186 -115.65,26.5 c 0.8391,-5.5 1.20944,-10.32167 0.82299,-10.71482 -0.38644,-0.39315 -6.54596,-3.34351 -13.68781,-6.55635 -19.70276,-8.86352 -20.76091,-7.30631 18.71044,-27.53483 17.76741,-9.10556 33.45783,-16.83939 34.86761,-17.18631 5.51561,-1.35727 6.28346,0.41403 16.46959,37.99231 5.21798,19.25 9.37023,35.9 9.22721,37 -0.45934,3.53297 -4.7391,2.8121 -17.59981,-2.96447 -6.78688,-3.04842 -12.74938,-5.28944 -13.25,-4.98004 -0.50062,0.3094 -0.90241,4.02349 -0.89286,8.25353 0.0416,18.42888 6.44703,33.87494 19.38543,46.74613 C -48.15298,99.92954 -33.57347,106 -14.89621,106 c 11.02908,0 18.49914,-1.69679 28.74531,-6.52936 4.042,-1.9064 7.74663,-3.22049 8.2325,-2.92021 2.00481,1.23905 18.27908,25.10197 18.34591,26.90057 0.17,4.5752 -25.26589,15.22418 -41.74987,17.479 -9.91593,1.35638 -20.11292,1.21575 -29.67764,-0.40929 z M 54.13039,108.25 C 52.53394,106.91401 49.77047,98.157 42.4493,71.23435 c -5.27446,-19.39611 -9.44193,-36.04611 -9.26106,-37 0.61728,-3.25544 5.22062,-2.42614 17.75004,3.1977 6.7742,3.04061 12.70935,5.28572 13.18923,4.98915 C 65.5047,41.57004 65.1117,27.19984 63.50065,19.5 62.6951,15.65 60.16477,8.675 57.87769,4 52.5202,-6.95119 40.00093,-19.83188 30,-24.6825 17.64145,-30.67659 13.79406,-31.504 -1.5,-31.45675 c -12.8497,0.0397 -14.61623,0.27453 -21.5,2.85803 -4.125,1.54813 -8.95429,3.6978 -10.73176,4.77704 -1.77747,1.07924 -3.64384,1.70758 -4.14748,1.39631 -2.06842,-1.27835 -18.48741,-25.22614 -18.55144,-27.05805 -0.0908,-2.59956 11.55182,-9.30012 22.37509,-12.87725 24.39764,-8.06351 49.51038,-7.13432 72.80385,2.69379 23.78375,10.03496 45.19871,31.91251 54.60081,55.78024 6.42014,16.29787 8.65223,32.95765 6.55261,48.9071 -0.75875,5.76375 -1.38453,11.13821 -1.39062,11.94325 -0.007,0.91707 5.03071,3.72993 13.48894,7.53182 14.18356,6.37536 16.20108,8.28957 12.29402,11.6645 C 121.85034,78.27089 59.30868,110 57.59162,110 c -0.75353,0 -2.31108,-0.7875 -3.46123,-1.75 z"
         id="path3219"
         inkscape:connector-curvature="0" />
      <path
         style="fill:#ffffff;fill-opacity:1"
         d="m -34.34954,139.45074 c -31.66567,-6.29349 -57.76934,-26.64946 -71.749,-55.95074 -7.75098,-16.246 -9.36645,-23.92644 -9.1496,-43.5 0.10054,-9.075 0.31,-18.43559 0.46547,-20.80131 L -114.5,14.89739 -127,9.37279 C -140.36161,3.46739 -142.59634,1.99642 -141.71108,-0.31052 -140.95516,-2.28043 -76.85781,-35 -73.75471,-35 c 1.34461,0 3.1436,0.7875 3.99776,1.75 0.85416,0.9625 5.82535,17.5 11.04709,36.75 9.40611,34.67578 10.05068,38.53652 6.42468,38.4816 -0.66815,-0.0101 -6.79928,-2.48512 -13.62473,-5.5 C -72.73536,33.46672 -78.88063,31 -79.56607,31 c -3.39573,0 -2.47476,18.8127 1.48213,30.2753 5.61098,16.25432 17.20619,29.98936 31.58394,37.41258 12.2322,6.31547 18.12177,7.75536 31.5,7.70114 12.92064,-0.0524 17.14081,-0.96451 28.22287,-6.10007 6.46976,-2.99817 7.97563,-3.3691 9.28063,-2.28605 C 25.12064,100.17494 40,121.81013 40,123.44353 c 0,3.69148 -19.53713,12.58477 -34.37303,15.64659 -10.86157,2.24159 -29.6592,2.41116 -39.97651,0.36062 z M 53.75695,107.25 C 52.90279,106.2875 47.9316,89.75 42.70986,70.5 33.30375,35.82422 32.65918,31.96348 36.28518,32.0184 c 0.66815,0.0101 6.79928,2.48512 13.62473,5.5 C 56.73536,40.53328 62.89048,43 63.58795,43 65.51643,43 66.30324,33.51484 65.0396,25.5 60.8571,-1.02815 44.78421,-20.66152 20.11775,-29.37296 12.38508,-32.1039 10.26755,-32.41998 -0.5,-32.45059 c -13.22862,-0.0376 -19.23944,1.2871 -30.23878,6.66422 -5.02578,2.45689 -6.52349,2.81359 -7.70312,1.83459 -3.05495,-2.53538 -17.66801,-24.23896 -17.36823,-25.7956 0.75991,-3.94592 20.09497,-12.57809 35.12922,-15.6835 9.9442,-2.05403 29.43978,-2.04689 39.47307,0.0145 41.73148,8.57379 74.16892,42.70339 80.27492,84.46262 1.12532,7.69608 0.79651,24.90314 -0.67915,35.54116 l -0.56698,4.08737 13.107,5.83123 c 13.43807,5.97851 15.6797,7.46815 14.77723,9.81994 C 124.99475,76.17725 60.57643,109 57.65339,109 c -1.28888,0 -3.04228,-0.7875 -3.89644,-1.75 z"
         id="path3217"
         inkscape:connector-curvature="0" />
      <path
         style="fill:#ffffff;fill-opacity:1"
         d="m -31.5504,139.60949 c -26.99959,-5.17567 -48.88965,-18.62027 -64.41511,-39.56296 -16.42789,-22.16001 -23.60277,-53.69974 -17.95202,-78.91452 0.76652,-3.42039 0.69706,-4.78105 -0.29472,-5.77283 -0.7137,-0.7137 -6.66533,-3.70405 -13.22585,-6.64522 -12.57341,-5.63683 -15.09968,-7.66573 -12.54495,-10.0751 0.81568,-0.76927 15.78915,-8.69683 33.27439,-17.6168 33.51647,-17.09819 35.56912,-17.7916 37.72675,-12.74447 2.25654,5.27846 19.14167,69.8637 18.62032,71.2223 -0.94945,2.47424 -3.83169,1.77241 -17.12543,-4.17008 -10.38754,-4.64337 -12.84736,-5.413 -13.58347,-4.25 -0.49439,0.78111 -0.89796,4.79519 -0.89683,8.92019 0.007,25.95477 15.29291,50.03781 38.54428,60.72712 C -33.5001,105.28898 -25.86998,107 -15.44986,107 -4.71898,107 5.97902,104.55377 14.86501,100.06814 18.20789,98.38066 21.13606,97 21.37207,97 c 1.11542,0 17.99783,24.74224 18.05861,26.46604 0.0998,2.83134 -16.50572,10.89977 -29.05681,14.11836 -12.26851,3.14611 -31.28458,4.06466 -41.92427,2.02509 z M 54.68675,107.75 C 53.55874,106.91839 49.81294,94.84753 43.49562,71.68653 38.27303,52.53911 34,36.00161 34,34.93653 c 0,-3.18824 3.83312,-2.36983 17.48702,3.73366 10.38754,4.64337 12.84736,5.413 13.58347,4.25 1.3924,-2.19992 1.05778,-15.65073 -0.58193,-23.3915 C 61.53233,5.5728 52.10176,-9.7457 41.31381,-18.11513 27.96353,-28.47244 18.25564,-32.08536 1.97421,-32.75586 c -13.33,-0.54896 -20.21957,0.80019 -31.6492,6.19772 -5.65815,2.672 -7.4819,3.14201 -8.62673,2.22323 -2.97388,-2.38668 -17.89177,-24.71847 -17.38844,-26.03015 0.90579,-2.36044 18.76865,-10.51157 29.19016,-13.31996 8.83271,-2.38024 11.8093,-2.69486 25.5,-2.69525 12.80342,-3.7e-4 16.92262,0.38109 23.67728,2.19263 35.72063,9.58 61.88027,34.32221 72.6226,68.68764 4.71511,15.08393 5.76335,34.33123 2.63097,48.30854 -0.66176,2.95293 -0.65437,4.81967 0.0223,5.63501 0.55654,0.67059 6.89249,3.83549 14.07988,7.03312 11.26309,5.01088 13.02649,6.10457 12.76748,7.9186 -0.23753,1.66364 -7.11161,5.60677 -32.80051,18.81514 -17.875,9.19072 -33.20149,16.72822 -34.05887,16.75 -0.85738,0.0218 -2.32185,-0.52291 -3.25438,-1.21041 z"
         id="path3215"
         inkscape:connector-curvature="0" />
      <path
         style="fill:#ffffff;fill-opacity:1"
         d="m -24.70336,139.91608 c -41.60161,-3.93808 -75.40324,-32.72588 -87.51293,-74.53205 -2.04027,-7.04361 -2.26145,-9.7495 -2.07493,-25.38403 0.11483,-9.625 0.33983,-19.27901 0.5,-21.45336 L -113.5,14.59328 -127,8.4747 c -9.96104,-4.51462 -13.5,-6.58364 -13.5,-7.89265 0,-1.32045 8.18243,-5.96391 32,-18.15972 17.6,-9.0121 33.1824,-16.3939 34.62756,-16.40399 1.44515,-0.0101 3.12158,0.57693 3.7254,1.30449 1.53742,1.85248 20.34151,71.5535 19.61917,72.72227 -0.9972,1.6135 -2.54195,1.1557 -15.70339,-4.65382 -7.00219,-3.0908 -13.41469,-5.35738 -14.25,-5.03685 C -81.69664,30.82082 -82,32.89502 -82,40.73871 c 0,18.67428 6.1528,33.45784 19.47538,46.79424 13.53095,13.54499 28.31633,19.76492 47.02462,19.78238 11.82855,0.011 18.3579,-1.35877 28.45343,-5.96928 4.09939,-1.87214 7.97787,-3.20266 8.61884,-2.95669 0.93893,0.3603 14.93264,19.50394 17.79917,24.34957 0.99899,1.68872 -6.75443,6.49211 -16.62115,10.29712 -15.82974,6.1046 -31.55715,8.38482 -47.45365,6.88003 z M 54.19118,106.73036 C 52.68021,104.90976 33.81794,35.1036 34.52697,33.95637 c 1.02839,-1.66398 2.97162,-1.09219 15.84434,4.66209 6.91289,3.09016 13.25734,5.35428 14.09879,5.03139 C 65.69931,43.17816 66,41.13637 66,33.26129 66,14.58701 59.8472,-0.19655 46.52462,-13.53295 33.045,-27.02656 18.24455,-33.2798 -0.5,-33.40102 c -11.60872,-0.0751 -17.98445,1.29608 -28.80156,6.19399 -6.70908,3.03782 -7.99611,3.33466 -9.19094,2.11976 -0.76416,-0.777 -5.03367,-6.58773 -9.48779,-12.91273 l -8.09841,-11.5 2.27981,-1.855 c 2.93253,-2.38611 10.3272,-6.12674 17.02769,-8.61355 37.29801,-13.84274 78.23884,-5.14819 106.41906,22.60006 12.19442,12.0075 21.28319,27.73828 26.56843,45.98446 2.04027,7.04361 2.26145,9.7495 2.07493,25.38403 -0.11483,9.625 -0.33983,19.26272 -0.5,21.41715 L 97.5,59.3343 l 13.49251,6.11509 c 8.25828,3.74282 13.61327,6.74212 13.80379,7.73142 0.23368,1.21339 -7.77946,5.75504 -32.14279,18.21776 C 74.80377,100.52936 59.08466,108 57.72216,108 c -1.3625,0 -2.95144,-0.57134 -3.53098,-1.26964 z"
         id="path3213"
         inkscape:connector-curvature="0" />
      <path
         style="fill:#ffffff;fill-opacity:1"
         d="m -33.40949,138.35075 c -27.59589,-4.99377 -53.07307,-22.85179 -67.6519,-47.42005 -11.34689,-19.12179 -16.14785,-44.27587 -12.58175,-65.92051 0.85994,-5.2194 1.23726,-9.81607 0.83851,-10.21482 -0.39876,-0.39876 -6.56834,-3.35662 -13.71019,-6.57304 -9.6058,-4.32609 -12.98518,-6.3121 -12.98518,-7.6312 0,-1.33237 8.08977,-5.92554 32,-18.1688 17.6,-9.0121 32.675,-16.38701 33.5,-16.38867 0.825,-0.002 2.10434,0.37999 2.84297,0.84813 1.2547,0.79521 20.08511,67.54113 20.13446,71.36821 0.0365,2.83352 -2.95026,2.12085 -16.50452,-3.9381 -12.35668,-5.5236 -12.76718,-5.63205 -14.19494,-3.75 -1.15356,1.5206 -1.36188,4.09229 -0.96704,11.9381 1.29855,25.8034 14.93687,47.02812 37.54554,58.43049 18.53851,9.34963 41.71317,9.37313 60.1604,0.061 3.4264,-1.72964 6.56394,-2.7728 6.97232,-2.31814 0.40837,0.45466 4.492,6.17284 9.07472,12.70707 l 8.33222,11.8804 -2.44806,2.02148 c -3.44447,2.84424 -15.16785,8.13544 -23.45301,10.58521 -14.44398,4.27081 -31.91498,5.19577 -46.90455,2.48325 z M 55.18782,107.13724 C 53.68992,106.18733 34.86441,38.55211 35.24838,35.5 35.59014,32.78351 36.99545,33.13964 51.81721,39.69886 67.42921,46.60779 67.44882,46.59698 66.68907,31.5 65.13211,0.5618 44.90766,-24.47879 15.37676,-32.03152 c -14.74911,-3.77219 -30.46333,-2.22325 -44.84182,4.42003 -4.01598,1.85549 -7.72573,3.08965 -8.24389,2.74256 C -39.0859,-25.79128 -55,-48.6313 -55,-49.68516 c 0,-0.49168 3.0375,-2.51728 6.75,-4.50134 31.12405,-16.63346 68.64815,-15.57889 99.42992,2.79438 10.08858,6.02174 24.64162,20.07949 31.27158,30.20728 13.28934,20.30052 19.03554,46.84392 15.19164,70.17465 -0.85994,5.2194 -1.23913,9.8142 -0.84265,10.21068 0.39648,0.39648 6.56192,3.33654 13.70098,6.53347 8.03021,3.59599 13.09988,6.43456 13.2942,7.44357 0.23739,1.23265 -7.60813,5.68417 -32.12346,18.22673 -17.84066,9.12766 -33.05286,16.58885 -33.80489,16.58043 -0.75202,-0.008 -1.9578,-0.38978 -2.6795,-0.84745 z"
         id="path3211"
         inkscape:connector-curvature="0" />
      <path
         style="fill:#ffffff;fill-opacity:1"
         d="m -33.5,137.58584 c -37.90519,-7.32016 -67.53957,-35.33294 -77.65998,-73.41041 -2.70652,-10.18314 -3.47758,-29.87368 -1.58496,-40.47533 1.00064,-5.60515 1.09032,-8.19239 0.3187,-9.19477 -0.59057,-0.76718 -6.8933,-4.00723 -14.00607,-7.2001 -7.11277,-3.19288 -12.96277,-6.25266 -13,-6.79951 -0.0902,-1.3247 63.32233,-33.43924 66.10194,-33.47658 2.67503,-0.0359 2.67291,-0.0422 13.28543,39.27786 7.44028,27.56669 8.81776,33.693 7.57579,33.693 -0.25803,0 -6.54837,-2.68958 -13.97853,-5.97685 -7.43016,-3.28727 -14.15365,-5.72963 -14.94108,-5.42746 -3.76615,1.4452 -2.72609,21.52187 1.78725,34.49997 9.95029,28.61205 38.68676,47.6884 68.63518,45.5626 9.28002,-0.65872 19.58158,-3.4266 27.31576,-7.33937 2.66719,-1.34935 4.95049,-2.3106 5.07401,-2.13612 0.12351,0.17448 3.74428,5.24784 8.04616,11.27415 4.30188,6.02631 7.86858,11.65131 7.926,12.5 0.14385,2.12619 -14.61223,9.33448 -25.8956,12.64991 -7.49232,2.20149 -11.42904,2.70199 -23.5,2.98766 -9.44478,0.22353 -16.94045,-0.12812 -21.5,-1.00865 z M 55.14697,105.67709 C 53.91771,104.19592 36,38.91108 36,35.91331 36,34.86099 36.21112,34 36.46915,34 c 0.25803,0 6.54837,2.68958 13.97853,5.97685 7.43016,3.28727 14.15365,5.72963 14.94108,5.42746 2.10942,-0.80946 2.95057,-10.72985 1.6827,-19.84549 -4.22908,-30.40602 -25.39062,-53.10484 -55.12524,-59.12985 -14.2706,-2.89159 -30.80307,-0.57366 -44.18196,6.19453 l -4.73574,2.39574 -5.33057,-7.25962 c -9.25744,-12.60757 -11.82576,-16.74381 -11.1129,-17.89723 1.21861,-1.97176 18.93502,-9.8185 27.06077,-11.98544 11.09937,-2.95994 31.88992,-3.66241 43.53767,-1.47106 38.18072,7.18314 67.77906,35.05143 77.97649,73.41868 2.70652,10.18314 3.47758,29.87368 1.58496,40.47533 -1.00022,5.60275 -1.08999,8.18811 -0.3187,9.17805 0.59057,0.75799 6.47376,3.7333 13.07376,6.6118 6.6,2.87851 12.60251,5.77947 13.33891,6.44658 1.07847,0.97699 -1.64477,2.77251 -14,9.23068 C 84.14812,94.67307 59.13306,107 57.63355,107 c -0.76376,0 -1.88272,-0.59531 -2.48658,-1.32291 z"
         id="path3209"
         inkscape:connector-curvature="0" />
    </g>
  </g>
</svg>
