<?xml version="1.0" encoding="UTF-8" standalone="no"?>
<!-- Created with Inkscape (http://www.inkscape.org/) -->

<svg
   xmlns:dc="http://purl.org/dc/elements/1.1/"
   xmlns:cc="http://creativecommons.org/ns#"
   xmlns:rdf="http://www.w3.org/1999/02/22-rdf-syntax-ns#"
   xmlns:svg="http://www.w3.org/2000/svg"
   xmlns="http://www.w3.org/2000/svg"
   xmlns:sodipodi="http://sodipodi.sourceforge.net/DTD/sodipodi-0.dtd"
   xmlns:inkscape="http://www.inkscape.org/namespaces/inkscape"
   width="126"
   height="126"
   id="svg3778"
   version="1.1"
   inkscape:version="0.48.3.1 r9886"
   sodipodi:docname="hexagon_ico.svg">
  <defs
     id="defs3780" />
  <sodipodi:namedview
     id="base"
     pagecolor="#065318"
     bordercolor="#666666"
     borderopacity="1.0"
     inkscape:pageopacity="1"
     inkscape:pageshadow="2"
     inkscape:zoom="5.3703539"
     inkscape:cx="22.326528"
     inkscape:cy="65.990745"
     inkscape:current-layer="layer1"
     showgrid="true"
     inkscape:grid-bbox="true"
     inkscape:document-units="px"
     showguides="true"
     inkscape:guide-bbox="true"
     inkscape:window-width="1920"
     inkscape:window-height="1044"
     inkscape:window-x="0"
     inkscape:window-y="0"
     inkscape:window-maximized="1"
     fit-margin-top="0"
     fit-margin-left="0"
     fit-margin-right="0"
     fit-margin-bottom="0">
    <inkscape:grid
       type="xygrid"
       id="grid3786"
       empspacing="5"
       visible="true"
       enabled="true"
       snapvisiblegridlinesonly="true"
       originx="5.246048px"
       originy="70.013946px" />
  </sodipodi:namedview>
  <metadata
     id="metadata3783">
    <rdf:RDF>
      <cc:Work
         rdf:about="">
        <dc:format>image/svg+xml</dc:format>
        <dc:type
           rdf:resource="http://purl.org/dc/dcmitype/StillImage" />
        <dc:title></dc:title>
      </cc:Work>
    </rdf:RDF>
  </metadata>
  <g
     id="layer1"
     inkscape:label="Layer 1"
     inkscape:groupmode="layer"
     transform="translate(5.246048,23.986055)">
    <path
       style="fill:#ffffff;fill-opacity:1;stroke:#2c2a29;stroke-width:0.50000000000000000px;stroke-linecap:butt;stroke-linejoin:miter;stroke-opacity:1"
       d="m 57.753952,-3.486055 c -3.75,0 -20,12.5 -20,12.5 l 0,21.25 c 0,0 16.25,12.5 20,12.5 3.75,0 20,-12.5 20,-12.5 l 0,-21.25 c 0,0 -16.25,-12.5 -20,-12.5 z"
       id="path7356"
       inkscape:connector-curvature="0"
       sodipodi:nodetypes="zcczccz" />
    <path
       sodipodi:nodetypes="zcczccz"
       inkscape:connector-curvature="0"
       id="path7517"
       d="m 36.503952,35.263945 c -3.75,0 -20,12.5 -20,12.5 l 0,21.25 c 0,0 16.25,12.5 20,12.5 3.75,0 20,-12.5 20,-12.5 l 0,-21.25 c 0,0 -16.25,-12.5 -20,-12.5 z"
       style="fill:#ffffff;fill-opacity:1;stroke:#2c2a29;stroke-width:0.50000000000000000px;stroke-linecap:butt;stroke-linejoin:miter;stroke-opacity:1" />
    <path
       style="fill:#ffffff;fill-opacity:1;stroke:#2c2a29;stroke-width:0.50000000000000000px;stroke-linecap:butt;stroke-linejoin:miter;stroke-opacity:1"
       d="m 79.003952,35.263945 c -3.75,0 -20,12.5 -20,12.5 l 0,21.25 c 0,0 16.25,12.5 20,12.5 3.75,0 20,-12.5 20,-12.5 l 0,-21.25 c 0,0 -16.25,-12.5 -20,-12.5 z"
       id="path7519"
       inkscape:connector-curvature="0"
       sodipodi:nodetypes="zcczccz" />
  </g>
</svg>
