<?xml version="1.0" encoding="UTF-8" standalone="no"?>
<!-- Created with Inkscape (http://www.inkscape.org/) -->

<svg
   xmlns:dc="http://purl.org/dc/elements/1.1/"
   xmlns:cc="http://creativecommons.org/ns#"
   xmlns:rdf="http://www.w3.org/1999/02/22-rdf-syntax-ns#"
   xmlns:svg="http://www.w3.org/2000/svg"
   xmlns="http://www.w3.org/2000/svg"
   xmlns:sodipodi="http://sodipodi.sourceforge.net/DTD/sodipodi-0.dtd"
   xmlns:inkscape="http://www.inkscape.org/namespaces/inkscape"
   width="126"
   height="126"
   id="svg3778"
   version="1.1"
   inkscape:version="0.48.3.1 r9886"
   sodipodi:docname="table_no_legs_ico.svg">
  <defs
     id="defs3780" />
  <sodipodi:namedview
     id="base"
     pagecolor="#065318"
     bordercolor="#666666"
     borderopacity="1.0"
     inkscape:pageopacity="1"
     inkscape:pageshadow="2"
     inkscape:zoom="5.515873"
     inkscape:cx="41.607194"
     inkscape:cy="63.763946"
     inkscape:current-layer="layer1"
     showgrid="true"
     inkscape:grid-bbox="true"
     inkscape:document-units="px"
     showguides="true"
     inkscape:guide-bbox="true"
     inkscape:window-width="1920"
     inkscape:window-height="1044"
     inkscape:window-x="0"
     inkscape:window-y="0"
     inkscape:window-maximized="1"
     fit-margin-top="0"
     fit-margin-left="0"
     fit-margin-right="0"
     fit-margin-bottom="0">
    <inkscape:grid
       type="xygrid"
       id="grid3786"
       empspacing="5"
       visible="true"
       enabled="true"
       snapvisiblegridlinesonly="true"
       originx="5.246048px"
       originy="70.013946px" />
  </sodipodi:namedview>
  <metadata
     id="metadata3783">
    <rdf:RDF>
      <cc:Work
         rdf:about="">
        <dc:format>image/svg+xml</dc:format>
        <dc:type
           rdf:resource="http://purl.org/dc/dcmitype/StillImage" />
        <dc:title></dc:title>
      </cc:Work>
    </rdf:RDF>
  </metadata>
  <g
     id="layer1"
     inkscape:label="Layer 1"
     inkscape:groupmode="layer"
     transform="translate(5.246048,23.986055)">
    <path
       style="fill:#ffffff;stroke:none"
       d="M 112.90625 18.8125 C 112.46798 18.8125 112.02116 19.009779 111.6875 19.375 L 99.65625 32.5625 L 103.59375 41.21875 L 117.75 26 C 118.41733 25.269557 118.41733 24.074192 117.75 23.34375 L 114.125 19.375 C 113.79134 19.009779 113.34452 18.8125 112.90625 18.8125 z M 103.59375 41.21875 L 86.6875 59.40625 L 66 37.34375 C 65.490346 36.785897 65.490346 35.870353 66 35.3125 L 69.625 31.375 L 26.625 31.375 L 6.625 76.375 L 26.875 94.625 C 52.744071 73.479081 72.744071 73.479081 99.375 94.625 L 119.375 75.875 L 103.59375 41.21875 z M 69.625 31.375 L 72.65625 31.375 L 72.0625 30.71875 C 71.552845 30.160897 70.728404 30.160897 70.21875 30.71875 L 69.625 31.375 z M 72.65625 31.375 L 86.6875 46.75 L 99.65625 32.5625 L 99.125 31.375 L 72.65625 31.375 z "
       transform="translate(-5.246048,-23.986055)"
       id="path3018" />
  </g>
</svg>
