<?xml version="1.0" encoding="UTF-8" standalone="no"?>
<!-- Created with Inkscape (http://www.inkscape.org/) -->

<svg
   xmlns:dc="http://purl.org/dc/elements/1.1/"
   xmlns:cc="http://creativecommons.org/ns#"
   xmlns:rdf="http://www.w3.org/1999/02/22-rdf-syntax-ns#"
   xmlns:svg="http://www.w3.org/2000/svg"
   xmlns="http://www.w3.org/2000/svg"
   xmlns:sodipodi="http://sodipodi.sourceforge.net/DTD/sodipodi-0.dtd"
   xmlns:inkscape="http://www.inkscape.org/namespaces/inkscape"
   width="126"
   height="126"
   id="svg3778"
   version="1.1"
   inkscape:version="0.48.3.1 r9886"
   sodipodi:docname="table_no_legs_ico.svg">
  <defs
     id="defs3780" />
  <sodipodi:namedview
     id="base"
     pagecolor="#065318"
     bordercolor="#666666"
     borderopacity="1.0"
     inkscape:pageopacity="1"
     inkscape:pageshadow="2"
     inkscape:zoom="5.515873"
     inkscape:cx="41.607194"
     inkscape:cy="63.763946"
     inkscape:current-layer="layer1"
     showgrid="true"
     inkscape:grid-bbox="true"
     inkscape:document-units="px"
     showguides="true"
     inkscape:guide-bbox="true"
     inkscape:window-width="1920"
     inkscape:window-height="1044"
     inkscape:window-x="0"
     inkscape:window-y="0"
     inkscape:window-maximized="1"
     fit-margin-top="0"
     fit-margin-left="0"
     fit-margin-right="0"
     fit-margin-bottom="0">
    <inkscape:grid
       type="xygrid"
       id="grid3786"
       empspacing="5"
       visible="true"
       enabled="true"
       snapvisiblegridlinesonly="true"
       originx="5.246048px"
       originy="70.013946px" />
  </sodipodi:namedview>
  <metadata
     id="metadata3783">
    <rdf:RDF>
      <cc:Work
         rdf:about="">
        <dc:format>image/svg+xml</dc:format>
        <dc:type
           rdf:resource="http://purl.org/dc/dcmitype/StillImage" />
        <dc:title></dc:title>
      </cc:Work>
    </rdf:RDF>
  </metadata>
  <g
     id="layer1"
     inkscape:label="Layer 1"
     inkscape:groupmode="layer"
     transform="translate(5.246048,23.986055)">
    <path
       style="fill:#ffffff;stroke:none"
       d="M 55.90625 14 L 49.125 20.75 L 59.6875 31.375 L 73.21875 31.375 L 55.90625 14 z M 73.21875 31.375 L 78.5 36.6875 L 83.84375 31.375 L 73.21875 31.375 z M 83.84375 31.375 L 97.4375 31.375 L 107.9375 20.90625 L 101.15625 14.125 L 83.84375 31.375 z M 97.4375 31.375 L 85.25 43.5 L 107.8125 66.15625 L 101.03125 72.9375 L 78.4375 50.25 L 55.78125 72.8125 L 49 66 L 71.6875 43.4375 L 59.6875 31.375 L 26.625 31.375 L 6.625 76.375 L 26.875 94.625 C 52.744071 73.479081 72.744071 73.479081 99.375 94.625 L 119.375 75.875 L 99.125 31.375 L 97.4375 31.375 z "
       transform="translate(-5.246048,-23.986055)"
       id="path3018" />
  </g>
</svg>
