<?xml version="1.0" encoding="UTF-8" standalone="no"?>
<!-- Created with Inkscape (http://www.inkscape.org/) -->

<svg
   xmlns:dc="http://purl.org/dc/elements/1.1/"
   xmlns:cc="http://creativecommons.org/ns#"
   xmlns:rdf="http://www.w3.org/1999/02/22-rdf-syntax-ns#"
   xmlns:svg="http://www.w3.org/2000/svg"
   xmlns="http://www.w3.org/2000/svg"
   xmlns:sodipodi="http://sodipodi.sourceforge.net/DTD/sodipodi-0.dtd"
   xmlns:inkscape="http://www.inkscape.org/namespaces/inkscape"
   width="126"
   height="126"
   id="svg3778"
   version="1.1"
   inkscape:version="0.48.4 r9939"
   sodipodi:docname="tag_ico.svg">
  <defs
     id="defs3780" />
  <sodipodi:namedview
     id="base"
     pagecolor="#065318"
     bordercolor="#666666"
     borderopacity="1.0"
     inkscape:pageopacity="1"
     inkscape:pageshadow="2"
     inkscape:zoom="6.7142857"
     inkscape:cx="25.914894"
     inkscape:cy="63"
     inkscape:current-layer="layer1"
     showgrid="true"
     inkscape:grid-bbox="true"
     inkscape:document-units="px"
     showguides="true"
     inkscape:guide-bbox="true"
     inkscape:window-width="1920"
     inkscape:window-height="1025"
     inkscape:window-x="-2"
     inkscape:window-y="-3"
     inkscape:window-maximized="1"
     fit-margin-top="0"
     fit-margin-left="0"
     fit-margin-right="0"
     fit-margin-bottom="0"
     inkscape:snap-grids="true">
    <inkscape:grid
       type="xygrid"
       id="grid3786"
       empspacing="5"
       visible="true"
       enabled="true"
       snapvisiblegridlinesonly="true"
       originx="5.246048px"
       originy="70.013946px" />
  </sodipodi:namedview>
  <metadata
     id="metadata3783">
    <rdf:RDF>
      <cc:Work
         rdf:about="">
        <dc:format>image/svg+xml</dc:format>
        <dc:type
           rdf:resource="http://purl.org/dc/dcmitype/StillImage" />
        <dc:title />
      </cc:Work>
    </rdf:RDF>
  </metadata>
  <g
     id="layer1"
     inkscape:label="Layer 1"
     inkscape:groupmode="layer"
     transform="translate(5.246048,23.986055)">
    <path
       style="fill:#ffffff;fill-opacity:1;stroke:none"
       d="M 53.46875 13.875 L 14.78125 15.40625 L 13.46875 53.875 L 67.03125 112.125 L 112.53125 65.6875 L 53.46875 13.875 z M 32.03125 22.0625 C 34.59034 22.036441 37.152597 22.973612 39.125 24.90625 C 43.069805 28.771525 43.146525 35.117696 39.28125 39.0625 C 35.415976 43.007306 29.069805 43.052774 25.125 39.1875 C 21.180195 35.322224 21.134726 29.007305 25 25.0625 C 26.932637 23.090097 29.47216 22.088559 32.03125 22.0625 z M 59.1875 46.625 L 61.71875 49 L 63.375 52.4375 L 57.53125 58.6875 L 58.46875 59.5625 L 67.34375 57.5 C 69.59009 56.972035 70.801499 57.501187 72.4375 59.03125 L 77.09375 63.375 C 78.583679 64.76845 78.639522 66.793356 77.21875 68.3125 L 75.09375 70.59375 L 77.25 72.625 L 73.53125 76.59375 L 71.375 74.5625 L 66.84375 79.40625 L 61.71875 74.625 L 68.53125 67.34375 L 67.1875 66.09375 L 58.28125 68.1875 C 56.03491 68.715465 54.854751 68.217563 53.21875 66.6875 L 48.96875 62.6875 C 47.478821 61.29405 47.3878 59.239929 48.78125 57.75 L 50.9375 55.4375 L 48.75 53.375 L 52.46875 49.40625 L 54.65625 51.46875 L 59.1875 46.625 z "
       transform="translate(-5.246048,-23.986055)"
       id="rect3048" />
  </g>
</svg>
