<?xml version="1.0" encoding="UTF-8" standalone="no"?>
<!-- Created with Inkscape (http://www.inkscape.org/) -->

<svg
   xmlns:dc="http://purl.org/dc/elements/1.1/"
   xmlns:cc="http://creativecommons.org/ns#"
   xmlns:rdf="http://www.w3.org/1999/02/22-rdf-syntax-ns#"
   xmlns:svg="http://www.w3.org/2000/svg"
   xmlns="http://www.w3.org/2000/svg"
   xmlns:sodipodi="http://sodipodi.sourceforge.net/DTD/sodipodi-0.dtd"
   xmlns:inkscape="http://www.inkscape.org/namespaces/inkscape"
   width="200"
   height="200"
   id="svg2"
   version="1.1"
   inkscape:version="0.48.3.1 r9886"
   inkscape:export-filename="/home/art/posqt/qml/posqt/mask.png"
   inkscape:export-xdpi="91.323532"
   inkscape:export-ydpi="91.323532"
   sodipodi:docname="tran_plus_ico.svg">
  <defs
     id="defs4" />
  <sodipodi:namedview
     id="base"
     pagecolor="#577d84"
     bordercolor="#666666"
     borderopacity="1.0"
     inkscape:pageopacity="0.16862745"
     inkscape:pageshadow="2"
     inkscape:zoom="4.485"
     inkscape:cx="97.54738"
     inkscape:cy="108.91862"
     inkscape:document-units="px"
     inkscape:current-layer="layer1"
     showgrid="true"
     inkscape:window-width="1920"
     inkscape:window-height="1044"
     inkscape:window-x="0"
     inkscape:window-y="0"
     inkscape:window-maximized="1"
     inkscape:snap-global="false">
    <inkscape:grid
       type="xygrid"
       id="grid3821"
       empspacing="5"
       dotted="true"
       visible="true"
       enabled="true"
       snapvisiblegridlinesonly="true" />
  </sodipodi:namedview>
  <metadata
     id="metadata7">
    <rdf:RDF>
      <cc:Work
         rdf:about="">
        <dc:format>image/svg+xml</dc:format>
        <dc:type
           rdf:resource="http://purl.org/dc/dcmitype/StillImage" />
        <dc:title></dc:title>
      </cc:Work>
    </rdf:RDF>
  </metadata>
  <g
     inkscape:label="Layer 1"
     inkscape:groupmode="layer"
     id="layer1"
     transform="translate(0,-852.36218)">
    <path
       style="fill:#353c43;fill-opacity:0.39215686000000000;stroke:#ffffff;stroke-opacity:1"
       d="M 100 26.40625 C 95.120847 26.40625 91.1875 30.339597 91.1875 35.21875 L 91.1875 91.1875 L 35.25 91.09375 C 30.370855 91.085357 26.414643 94.995855 26.40625 99.875 C 26.397857 104.75415 30.339605 108.67911 35.21875 108.6875 L 91.1875 108.78125 L 91.1875 164.78125 C 91.1875 169.6604 95.120847 173.59375 100 173.59375 C 104.87915 173.59375 108.8125 169.6604 108.8125 164.78125 L 108.8125 108.8125 L 164.75 108.90625 C 169.62915 108.91464 173.58536 105.00415 173.59375 100.125 C 173.60214 95.245855 169.6604 91.320893 164.78125 91.3125 L 108.8125 91.21875 L 108.8125 35.21875 C 108.8125 30.339597 104.87915 26.40625 100 26.40625 z "
       transform="translate(0,852.36218)"
       id="rect3755" />
    <path
       style="fill:#353c43;fill-opacity:0.39215686;stroke:none"
       d="M 100 2.90625 C 44.894667 2.90625 0.21875 46.372351 0.21875 100 C 0.21875 153.62765 44.894667 197.09375 100 197.09375 C 155.10533 197.09375 199.78125 153.62765 199.78125 100 C 199.78125 46.372351 155.10533 2.90625 100 2.90625 z M 100 17.46875 C 146.83953 17.46875 184.8125 54.416498 184.8125 100 C 184.8125 145.5835 146.83953 182.53125 100 182.53125 C 53.160467 182.53125 15.1875 145.5835 15.1875 100 C 15.1875 54.416498 53.160467 17.46875 100 17.46875 z "
       transform="translate(0,852.36218)"
       id="path3819" />
  </g>
</svg>
